<?xml version="1.0" encoding="utf-8"?><!DOCTYPE svg PUBLIC "-//W3C//DTD SVG 1.1//EN" "http://www.w3.org/Graphics/SVG/1.1/DTD/svg11.dtd"><svg version="1.1" id="Layer_1" xmlns="http://www.w3.org/2000/svg" xmlns:xlink="http://www.w3.org/1999/xlink" x="0px" y="0px" width="50px" height="40px" viewBox="0 0 50 40" enable-background="new 0 0 50 40" xml:space="preserve"><path fill="#3480C2" d="M49.817,3.678c0-0.122-0.099-0.221-0.222-0.221H46.73c-0.061,0-0.109-0.049-0.109-0.111V0.48 c0-0.123-0.101-0.221-0.222-0.221h-2.284c-0.123,0-0.222,0.099-0.222,0.221v2.866c0,0.062-0.051,0.111-0.111,0.111h-2.866 c-0.122,0-0.221,0.099-0.221,0.221v2.286c0,0.121,0.099,0.22,0.221,0.22h2.866c0.061,0,0.111,0.049,0.111,0.11v2.867 c0,0.122,0.099,0.22,0.222,0.22h2.284c0.121,0,0.222-0.098,0.222-0.22V6.294c0-0.062,0.049-0.11,0.109-0.11h2.865 c0.123,0,0.222-0.099,0.222-0.22V3.678z"/><path fill="#3480C2" d="M0.286,17.351c0,1.007,0.817,1.823,1.824,1.823h36.447c1.008,0,1.822-0.816,1.822-1.823V8.239 c0-1.007-0.814-1.822-1.822-1.822H2.109c-1.007,0-1.824,0.815-1.824,1.822V17.351z M0.286,33.753c0,1.006,0.817,1.822,1.824,1.822 h36.447c1.008,0,1.822-0.816,1.822-1.822v-9.11c0-1.009-0.814-1.822-1.822-1.822H2.109c-1.007,0-1.824,0.813-1.824,1.822V33.753z M31.267,12.795c0-1.508,1.227-2.733,2.735-2.733c1.506,0,2.731,1.225,2.731,2.733c0,1.509-1.226,2.734-2.731,2.734	C32.493,15.529,31.267,14.305,31.267,12.795 M31.267,29.196c0-1.51,1.227-2.733,2.735-2.733c1.506,0,2.731,1.224,2.731,2.733 s-1.226,2.734-2.731,2.734C32.493,31.931,31.267,30.706,31.267,29.196"/></svg>