<?xml version="1.0" encoding="utf-8"?><!DOCTYPE svg PUBLIC "-//W3C//DTD SVG 1.1//EN" "http://www.w3.org/Graphics/SVG/1.1/DTD/svg11.dtd"><svg version="1.1" id="Layer_1" xmlns="http://www.w3.org/2000/svg" xmlns:xlink="http://www.w3.org/1999/xlink" x="0px" y="0px" width="40px" height="40px" viewBox="0 0 40 40" enable-background="new 0 0 40 40" xml:space="preserve"><path fill="#3480C2" d="M4.738,6.417c0-0.214,0.227-0.351,0.416-0.25l1.117,0.589l11.845,6.272c0.258,0.137,0.418,0.404,0.418,0.695 v14.611L21.6,27.87V13.878c0-0.291-0.16-0.559-0.419-0.694L9.668,7.09C9.414,6.967,9.252,6.746,9.337,6.539V5.743 c0-0.256,0.271-0.42,0.498-0.301l12.879,6.82c0.257,0.136,0.418,0.404,0.418,0.695v14.68l3.066-0.463V13.112 c0-0.291-0.161-0.558-0.418-0.694L14.267,6.324c-0.204-0.107-0.332-0.32-0.332-0.552V4.977c0-0.256,0.273-0.419,0.498-0.301	l12.881,6.819c0.256,0.137,0.417,0.404,0.417,0.695v14.751l3.066-0.466v-14.13c0-0.291-0.161-0.559-0.419-0.695L18.866,5.557 c-0.205-0.107-0.332-0.32-0.332-0.551V4.21c0-0.256,0.271-0.419,0.497-0.301l12.88,6.819c0.257,0.137,0.418,0.404,0.418,0.695 v14.821l3.066-0.466V11.579c0-0.291-0.16-0.559-0.419-0.694L23.463,4.791c-0.203-0.107-0.331-0.32-0.331-0.552V3.444 c0-0.256,0.272-0.42,0.497-0.301l12.881,6.82c0.257,0.136,0.418,0.404,0.418,0.695v14.891l2.892-0.439 c0.092-0.014,0.174,0.059,0.174,0.152v7.372c0,0.076-0.054,0.14-0.129,0.151l-26.046,3.947c-0.035-0.008-0.068-0.015-0.105-0.023 L0.208,27.969c-0.043-0.027-0.07-0.075-0.07-0.127v-7.594c0-0.122,0.134-0.195,0.236-0.128l13.684,8.853 c0.037,0.009,0.07,0.017,0.105,0.024L17,28.567V14.645c0-0.291-0.16-0.558-0.418-0.693L6.687,8.712	c-0.189-0.1-0.417,0.037-0.417,0.25v13.38l-1.533-0.99V7.681V6.417z"/></svg>