<?xml version="1.0" encoding="utf-8"?><!DOCTYPE svg PUBLIC "-//W3C//DTD SVG 1.1//EN" "http://www.w3.org/Graphics/SVG/1.1/DTD/svg11.dtd"><svg version="1.1" id="Layer_1" xmlns="http://www.w3.org/2000/svg" xmlns:xlink="http://www.w3.org/1999/xlink" x="0px" y="0px" width="40px" height="40px" viewBox="0 0 40 40" enable-background="new 0 0 40 40" xml:space="preserve"><path fill="#3480C2" d="M36.656,17.975v-5.124h-8.909c0.571,1.494,0.9,3.105,0.937,4.79l-3.681-2.969 c-1.41-4.55-5.647-7.853-10.661-7.853c-6.16,0-11.155,4.992-11.155,11.156c0,6.159,4.995,11.155,11.155,11.155 c4.781,0,8.862-3.007,10.45-7.233l2.237,2.775c-0.911,1.726-2.163,3.241-3.667,4.458h13.294V17.975z M39.844,30.724	c0,0.881-0.716,1.594-1.594,1.594H1.593C0.713,32.317,0,31.604,0,30.724V5.222c0-0.878,0.713-1.593,1.593-1.593H38.25 c0.878,0,1.594,0.715,1.594,1.593V30.724z M30.429,26.323l-0.2-0.228L19.775,13.147c-0.097-0.1-0.101-0.258,0-0.358	c0.1-0.1,0.261-0.1,0.36,0l13.175,10.654c0.796,0.793,0.796,2.086,0,2.88C32.517,27.119,31.226,27.119,30.429,26.323z M14.342,13.194c2.643,0,4.781,2.138,4.781,4.781c0,2.638-2.138,4.781-4.781,4.781c-2.639,0-4.78-2.143-4.78-4.781 C9.562,15.332,11.703,13.194,14.342,13.194z"/></svg>