<?xml version="1.0" encoding="utf-8"?><!DOCTYPE svg PUBLIC "-//W3C//DTD SVG 1.1//EN" "http://www.w3.org/Graphics/SVG/1.1/DTD/svg11.dtd"><svg version="1.1" id="Layer_1" xmlns="http://www.w3.org/2000/svg" xmlns:xlink="http://www.w3.org/1999/xlink" x="0px" y="0px" width="40px" height="40px" viewBox="0 0 40 40" enable-background="new 0 0 40 40" xml:space="preserve"><path fill="#3480C2" d="M1.18,39.777h37.578c0.55,0,0.989-0.441,0.989-0.989V1.212c0-0.545-0.439-0.99-0.989-0.99H1.18	c-0.544,0-0.988,0.444-0.988,0.99v37.576C0.192,39.336,0.636,39.777,1.18,39.777 M4.147,4.179h31.646V29.89H4.147V4.179z M21.909,12.715c-0.612-2.626-2.966-4.581-5.779-4.581c-3.274,0-5.932,2.655-5.932,5.932c0,1.533,0.578,2.929,1.533,3.982 c-1.975,0.218-3.512,1.895-3.512,3.93c0,2.186,1.773,3.955,3.956,3.955h15.821c2.188,0,3.957-1.77,3.957-3.955 c0-2.185-1.77-3.956-3.957-3.956c-0.183,0-0.371,0.014-0.549,0.039c0.349-0.591,0.549-1.279,0.549-2.016 c0-2.185-1.769-3.956-3.955-3.956C23.257,12.089,22.523,12.32,21.909,12.715"/></svg>